<?xml version="1.0" encoding="iso-8859-1"?>
<!-- Generator: Adobe Illustrator 19.0.0, SVG Export Plug-In . SVG Version: 6.00 Build 0)  -->
<svg version="1.1" id="Capa_1" xmlns="http://www.w3.org/2000/svg" xmlns:xlink="http://www.w3.org/1999/xlink" x="0px" y="0px"
	 viewBox="0 0 464 464" style="enable-background:new 0 0 464 464;" xml:space="preserve">
<path style="fill:#FFA442;" d="M0,304h464V0H0V304z M32,32h400v240H32V32z"/>
<polygon style="fill:#383838;" points="32,32 32,272 312,272 312,248 312,224 408,224 408,248 408,272 432,272 432,32 "/>
<polygon style="fill:#FFEBDB;" points="312,224 312,248 312,272 408,272 408,248 408,224 "/>
<g>
	<polygon style="fill:#FFA442;" points="72,464 120,464 160,304 112,304 	"/>
	<polygon style="fill:#FFA442;" points="344,464 392,464 352,304 304,304 	"/>
	<rect x="208" y="304" style="fill:#FFA442;" width="48" height="160"/>
</g>
<g>
	<polygon style="fill:#DB8D39;" points="154,328 160,304 112,304 106,328 	"/>
	<polygon style="fill:#DB8D39;" points="358,328 352,304 304,304 310,328 	"/>
	<rect x="208" y="304" style="fill:#DB8D39;" width="48" height="24"/>
</g>
<g>
	<rect x="72" y="240" style="fill:#FFEBDB;" width="56" height="16"/>
	<path style="fill:#FFEBDB;" d="M92,134.944l-8-13.888l41.216-23.552c8.556-4.922,19.481-1.976,24.403,6.579
		c1.565,2.72,2.386,5.803,2.381,8.941c-0.026,0.645,0.294,1.255,0.84,1.6c0.525,0.354,1.194,0.417,1.776,0.168l38.48-16.496
		c4.35-1.878,9.27-1.938,13.664-0.168l26.624,10.648c5.389,2.143,11.137,3.237,16.936,3.224H288v16h-37.68
		c-7.835,0.002-15.599-1.495-22.872-4.408L200.8,112.944c-0.463-0.18-0.977-0.18-1.44,0l-38.48,16.496
		c-9.087,3.866-19.587-0.366-23.453-9.453c-0.937-2.202-1.422-4.57-1.427-6.963c0.015-0.667-0.347-1.286-0.936-1.6
		c-0.578-0.348-1.302-0.348-1.88,0L92,134.944z"/>
</g>
<g>
</g>
<g>
</g>
<g>
</g>
<g>
</g>
<g>
</g>
<g>
</g>
<g>
</g>
<g>
</g>
<g>
</g>
<g>
</g>
<g>
</g>
<g>
</g>
<g>
</g>
<g>
</g>
<g>
</g>
</svg>
